<svg xmlns="http://www.w3.org/2000/svg" viewBox="0 0 1024 1024"><path fill="#8B4513" d="M128 512c0-212.07 171.93-384 384-384s384 171.93 384 384c0 106.035-42.982 201.97-112.426 271.465L512 896 240.426 783.465C170.982 713.97 128 618.035 128 512z"/><path fill="#D2691E" d="M512 192c-176.73 0-320 143.27-320 320 0 88.365 35.818 168.308 93.688 226.213L512 800l226.312-61.787C796.182 680.308 832 600.365 832 512c0-176.73-143.27-320-320-320z"/><circle cx="704" cy="448" r="64" fill="#000" opacity="0.3"/><path fill="#FFF" opacity="0.2" d="M512 192c-176.73 0-320 143.27-320 320 0 24.364 2.723 48.067 7.848 70.854C226.963 398.257 358.32 256 512 256s285.037 142.257 312.152 326.854C829.277 560.067 832 536.364 832 512c0-176.73-143.27-320-320-320z"/></svg>